<svg xmlns="http://www.w3.org/2000/svg" xmlns:svg="http://www.w3.org/2000/svg" id="Layer_1" width="50" height="50" x="0" y="0" enable-background="new 0 0 50 50" version="1.1" viewBox="0 0 50 50" xml:space="preserve"><metadata id="metadata3047"/><path id="path3041" d="m 39.155667,28.992333 c -0.953,-2.246 -2.566,-4.061 -4.816,-5.424 2.242,-2.072 3.408,-4.886 3.408,-8.299 0,-3.61 -1.303,-6.5839997 -3.874,-8.8399997 -2.493,-2.187 -6.084,-3.296 -10.67,-3.296 l -13.2160003,0 c -1.253999,0 -2.0396662,0.474 -2.8986664,1.368 -0.8429998,0.874 -1.2889998,1.984 -1.2889998,3.208 l 0,33.9919997 c 0,1.239 0.455,3.35 1.3119998,4.205 0.8580002,0.859 1.6346674,1.227 2.8746664,1.227 l 13.4800003,0 c 5.465,0 9.701,-2.089 12.445,-4.405 1.412,-1.184 2.455,-2.623 3.1,-4.279 0.609,-1.568 0.92,-3.228 0.92,-4.925 -10e-4,-1.698 -0.254,-3.207 -0.776,-4.532 z m -15.987078,-0.859 c 2.864,0 4.942078,0.185 6.298078,1 0.722,0.434 1.537,1.916 1.537,3.888 0,0.694 -0.115,1.314 -0.363,1.895 -0.836,2.104 -4.664667,3.150333 -7.670667,3.150333 l -8.57,0 0.06667,-9.933333 z m -8.701922,-8 0,-8 8.344,0 c 2.123,0 3.729,0.155 4.771,0.931 0.896,0.669 1.296,1.471 1.296,2.598 0,0.676 -0.098,1.311 -0.271,1.838 -0.612,1.689 -2.881,2.633 -6.743,2.633 z" style="fill:#231f20"/></svg>