<svg xmlns="http://www.w3.org/2000/svg" xmlns:svg="http://www.w3.org/2000/svg" id="Layer_1" width="50" height="50" x="0" y="0" enable-background="new 0 0 50 50" version="1.1" viewBox="0 0 50 50" xml:space="preserve"><metadata id="metadata3558"/><g id="g3548" transform="translate(-1.7072703,-1.126)"><path id="path3550" d="m 36.501584,21.659333 -8.266667,0 0,-8 c 0,-1.432 -0.388647,-2 -1.527647,-2 -1.132,0 -1.472353,0.568 -1.472353,2 l 0,8 -8.133333,0 c -1.432,0 -2,0.432 -2,1.563 0,1.137 0.568,1.437 2,1.437 l 8.133333,0 -0.06667,8.133333 c -0.01175,1.432952 0.397902,2 1.529902,2 1.139,0 1.458353,-0.567048 1.470098,-2 l 0.06667,-8.133333 8.266667,0 c 1.432,0 2,-0.3 2,-1.437 0,-1.131 -0.568,-1.563 -2,-1.563 z"/><path id="path3552" d="m 26.933,2.687 c -11.3059,0 -20.504,9.1981 -20.504,20.504932 0,11.3059 9.1981,20.503068 20.504,20.503068 11.304037,0 20.504,-9.197168 20.504,-20.503068 C 47.437932,11.8851 38.2389,2.687 26.933,2.687 z m 0,37.400884 c -9.316442,0 -16.89502,-7.580442 -16.89502,-16.89502 0,-9.31551 7.578578,-16.8950206 16.89502,-16.8950206 9.31551,0 16.89502,7.5795106 16.89502,16.8950206 0,9.314578 -7.57951,16.89502 -16.89502,16.89502 z"/></g></svg>