<svg xmlns="http://www.w3.org/2000/svg" xmlns:svg="http://www.w3.org/2000/svg" id="Layer_1" width="50" height="50" x="0" y="0" enable-background="new 0 0 50 50" version="1.1" viewBox="0 0 50 50" xml:space="preserve"><metadata id="metadata9"/><path id="path3" d="m 28.282862,41.415993 -4.718,0 8.07342,-32.9352755 4.717,0 c 1.482,0 2.961,-1.201 3.305,-2.684 0.342,-1.482 -0.582,-2.686 -2.064,-2.686 l -14.804,0 c -1.482,0 -2.962,1.203 -3.304,2.686 -0.343,1.482 0.582,2.684 2.064,2.684 l 4.716,0 -8.07242,32.9352755 -4.717,0 c -1.482,0 -2.963,1.203 -3.305,2.687 -0.3419999,1.481 0.583,2.684 2.065,2.684 l 14.803,0 c 1.482,0 2.961,-1.201 3.303,-2.684 0.345,-1.484 -0.579226,-2.712905 -2.062,-2.687 z"/></svg>