<svg xmlns="http://www.w3.org/2000/svg" xmlns:svg="http://www.w3.org/2000/svg" id="Layer_1" width="50" height="50" x="0" y="0" enable-background="new 0 0 50 50" version="1.1" viewBox="0 0 50 50" xml:space="preserve"><metadata id="metadata3802"/><path id="path3792" d="m 10.343685,10.403918 h 29.605769 c 1.403501,0 2.543453,-0.4334528 2.545242,-0.9698501 0,-0.5363967 -1.140849,-0.9693977 -2.545242,-0.9693977 H 10.343685 c -1.4026095,0 -2.5416708,0.433001 -2.5416708,0.9693977 0,0.5363973 1.1381681,0.9698501 2.5416708,0.9698501 z"/><path id="path2997" d="m 10.246692,20.685199 h 29.605769 c 1.403501,0 2.543453,-0.433453 2.545242,-0.969851 0,-0.536396 -1.140849,-0.969397 -2.545242,-0.969397 H 10.246692 c -1.4026097,0 -2.541671,0.433001 -2.541671,0.969397 0,0.536398 1.1381681,0.969851 2.541671,0.969851 z"/><path id="path2999" d="m 10.343685,31.160465 h 29.605769 c 1.403501,0 2.543453,-0.433453 2.545242,-0.969851 0,-0.536396 -1.140849,-0.969397 -2.545242,-0.969397 H 10.343685 c -1.4026095,0 -2.5416708,0.433001 -2.5416708,0.969397 0,0.536398 1.1381681,0.969851 2.5416708,0.969851 z"/><path id="path3003" d="m 10.246692,41.538739 h 29.605769 c 1.403501,0 2.543453,-0.433453 2.545242,-0.969851 0,-0.536396 -1.140849,-0.969397 -2.545242,-0.969397 H 10.246692 c -1.4026097,0 -2.541671,0.433001 -2.541671,0.969397 0,0.536398 1.1381681,0.969851 2.541671,0.969851 z"/></svg>