<svg xmlns="http://www.w3.org/2000/svg" xmlns:xlink="http://www.w3.org/1999/xlink" id="Layer_1" width="50" height="50" x="0" y="0" enable-background="new 0 0 50 50" version="1.1" viewBox="0 0 50 50" xml:space="preserve"><path fill="#231F20" d="M39.503,14.646H10.676c-1.104,0-2-0.896-2-2s0.896-2,2-2h28.827c1.104,0,2,0.896,2,2	S40.607,14.646,39.503,14.646z"/><path fill="#231F20" d="M39.503,38.712H10.676c-1.104,0-2-0.896-2-2s0.896-2,2-2h28.827c1.104,0,2,0.896,2,2	S40.607,38.712,39.503,38.712z"/><path fill="#231F20" d="M39.503,26.68H10.676c-1.104,0-2-0.895-2-2c0-1.104,0.896-2,2-2h28.827c1.104,0,2,0.896,2,2	C41.503,25.785,40.607,26.68,39.503,26.68z"/></svg>