<svg xmlns="http://www.w3.org/2000/svg" xmlns:xlink="http://www.w3.org/1999/xlink" id="Layer_1" width="50" height="50" x="0" y="0" enable-background="new 0 0 50 50" version="1.1" viewBox="0 0 50 50" xml:space="preserve"><g><path d="M43.618,40.035H6.835c-1.039,0-1.882-0.842-1.882-1.882s0.843-1.882,1.882-1.882h36.783c1.04,0,1.882,0.842,1.882,1.882 S44.658,40.035,43.618,40.035z"/><path d="M43.618,14.388H6.835c-1.039,0-1.882-0.842-1.882-1.882c0-1.039,0.843-1.882,1.882-1.882h36.783 c1.04,0,1.882,0.843,1.882,1.882C45.5,13.546,44.658,14.388,43.618,14.388z"/><path d="M43.618,27.212H6.835c-1.039,0-1.882-0.844-1.882-1.883s0.843-1.882,1.882-1.882h36.783c1.04,0,1.882,0.843,1.882,1.882 S44.658,27.212,43.618,27.212z"/></g></svg>