<svg xmlns="http://www.w3.org/2000/svg" xmlns:svg="http://www.w3.org/2000/svg" id="Layer_1" width="50" height="50" x="0" y="0" enable-background="new 0 0 50 50" version="1.1" viewBox="0 0 50 50" xml:space="preserve"><metadata id="metadata3558"/><g id="g3548" transform="translate(-1.3954404,2.2399652)"><path id="path3550" d="m 46.146584,19.126 -16,0 0,-16 c 0,-1.432 -2.300314,-2 -3.439314,-2 -1.132,0 -3.560686,0.6414851 -3.560686,2 l 0,16 -16.9999994,0 c -1.432,0 -2,2.275332 -2,3.406332 0,1.137 0.5680003,3.593668 2.0000003,3.593668 l 16.9999991,0 0,17 c 0,1.433 2.362723,2 3.494723,2 1.139,0 3.505277,-0.567 3.505277,-2 l 0,-17 16,0 c 1.432,0 2,-2.225797 2,-3.362797 0,-1.131 -0.570471,-3.721293 -2,-3.637203 z"/></g></svg>