<svg xmlns="http://www.w3.org/2000/svg" xmlns:svg="http://www.w3.org/2000/svg" id="Layer_1" width="50" height="50" x="0" y="0" enable-background="new 0 0 50 50" version="1.1" viewBox="0 0 50 50" xml:space="preserve"><metadata id="metadata15"/><g id="g3"><path id="path5" d="m 42.830422,14.51546 -14.775142,0.02043 c -0.959034,0.0013 -1.207475,-1.429583 -1.207475,-2.042636 0,-0.613052 0.248441,-1.974644 1.207475,-1.97597 l 14.775142,-0.02043 c 0.960002,-0.0013 1.206505,1.230201 1.206505,1.842636 0,0.612434 -0.246502,2.174643 -1.206505,2.17597 z" style="fill:#231f20"/><path id="path7" d="m 35.344769,21.133335 c -0.684709,0 -1.977476,-0.555744 -1.974238,-1.486078 l 0.05171,-14.856713 c 0.0032,-0.9312733 1.489529,-1.0184714 2.174239,-1.0184714 0.686091,0 1.910812,0.1548039 1.907574,1.0851381 l -0.05171,14.8557743 c -0.0032,0.931273 -1.42148,1.42035 -2.107575,1.42035 z" style="fill:#231f20"/><path id="path9" d="m 35.722871,41.640378 -21.626249,-0.0082 c -0.992999,-3.74e-4 -1.662666,-0.804 -1.662666,-1.796 l 0,-28.180269 c 0,-0.992 0.669667,-1.128283 1.662666,-1.129334 l 7.709956,-0.0082 c 0.991999,-0.0011 1.329334,1.204 1.329334,2.196 0,0.992 -0.20406,1.93911 -1.196001,1.928334 l -5.381623,-0.05847 0,22.989271 16.698918,0.0082 0.04667,-11.494138 c -0.002,-0.992 0.935333,-2.065667 2.160166,-2.065667 1.224834,0 1.8965,1.132334 1.8985,2.125334 l -0.179,13.760806 c 0.002,0.479 -0.188,0.869333 -0.523,1.204333 -0.336,0.337 -0.937667,0.051 -0.937667,0.527998 z" style="fill:#231f20"/></g></svg>