<svg xmlns="http://www.w3.org/2000/svg" xmlns:svg="http://www.w3.org/2000/svg" id="Layer_1" width="50" height="50" x="0" y="0" enable-background="new 0 0 50 50" version="1.1" viewBox="0 0 50 50" xml:space="preserve"><metadata id="metadata3486"/><g id="g3474" transform="translate(-0.06666667,-3.1996667)"><path id="path3476" d="m 47,12.333 c 0,0 -6.886,0 -9,0 -2.891,0 -4.025,-6 -7,-6 H 18 c -2,0 -3,6 -6,6 -3,0 -9,0 -9,0 -1.657,0 -3,1.345 -3,3 v 26 c 0,1.658 1.343,3 3,3 h 44 c 1.657,0 3,-1.342 3,-3 v -26 c 0,-1.655 -1.343,-3 -3,-3 z m -22,27 c -6.627,0 -12,-5.372 -12,-12 0,-6.627 5.373,-12 12,-12 6.628,0 12,5.373 12,12 0,6.628 -5.372,12 -12,12 z m 14.5,-21 c -0.829,0 -1.5,-0.672 -1.5,-1.5 0,-0.828 0.672,-1.5 1.5,-1.5 0.828,0 1.5,0.672 1.5,1.5 0,0.828 -0.671,1.5 -1.5,1.5 z"/><path id="path3478" d="m 10,9.333 c 0,-0.551 -0.448,-1 -1,-1 H 6 c -0.552,0 -1,0.449 -1,1 0,0.553 0,1 0,1 h 5 c 0,0 0,-0.447 0,-1 z"/><circle id="circle3480" cx="25" cy="27.333" r="9" d="m 34,27.333 c 0,4.970563 -4.029437,9 -9,9 -4.970563,0 -9,-4.029437 -9,-9 0,-4.970563 4.029437,-9 9,-9 4.970563,0 9,4.029437 9,9 z"/></g></svg>