<svg xmlns="http://www.w3.org/2000/svg" xmlns:svg="http://www.w3.org/2000/svg" id="Layer_1" width="50" height="50" x="0" y="0" enable-background="new 0 0 50 50" version="1.1" viewBox="0 0 50 50" xml:space="preserve"><metadata id="metadata4534"/><path id="path4522" d="m 14.438451,15.00929 c -0.0037,0.821195 -0.700238,1.468833 -1.606913,1.468833 l -7.0579149,0 c -0.9066757,0 -1.5770918,-0.647638 -1.5732798,-1.468833 l 0.033634,-7.24553 c 0.0038,-0.821196 0.7338716,-1.4858926 1.6405474,-1.4858926 l 6.9570139,0 c 0.906676,0 1.644361,0.6646966 1.640547,1.4858926 z" style="fill:#231f20"/><path id="path4524" d="m 14.489255,33.799151 c 0,0.833006 -0.734122,1.551745 -1.641107,1.551745 l -6.8921007,0 c -0.9069856,0 -1.7083982,-0.626037 -1.7083982,-1.459041 l 0,-7.38056 c 0,-0.833005 0.7341223,-1.507248 1.6411076,-1.507248 l 6.9593913,0 c 0.906985,0 1.641107,0.674243 1.641107,1.507248 z" style="fill:#231f20"/><path id="path4526" d="m 18.82268,26.418787 c -9.12e-4,-0.774229 0.605197,-1.400899 1.352898,-1.400899 l 20.067094,0 c 0.746799,0 1.351947,0.62667 1.352897,1.400899 l 0.01675,13.654518 c 9.1e-4,0.773295 -0.712631,1.508519 -1.459431,1.508519 l -19.977319,0 c -0.747701,0 -1.335546,-0.899341 -1.33614,-1.387597 z" style="fill:#231f20"/><path id="path4528" d="m 18.723322,8.0877255 c -0.0019,-1.0005462 0.606523,-1.8104011 1.355864,-1.8104011 l 20.111077,0 c 0.748436,0 1.353953,0.8098551 1.355863,1.8104011 l 0.0168,8.7907855 c 0.0019,1.000547 -0.624222,1.826733 -1.372658,1.826733 l -20.111077,0 c -0.749341,0 -1.337181,-0.714839 -1.339069,-1.715384 z" style="fill:#231f20"/></svg>