<svg xmlns="http://www.w3.org/2000/svg" xmlns:svg="http://www.w3.org/2000/svg" id="Layer_1" width="50" height="50" x="0" y="0" enable-background="new 0 0 50 50" version="1.1" viewBox="0 0 50 50" xml:space="preserve"><metadata id="metadata3149"/><path id="path3143" d="M 46.425,9 3.9183333,9 C 1.9413333,9 0,11.010667 0,13.153667 0,22.858 0,-54.273942 0,40 c 0,2.144 2.023,4 4,4 l 42,0 c 1.978,0 3.999209,-1.856 4,-4 L 50.01,12.887 C 50.01079,10.745 48.403,9 46.425,9 z m -22.958333,5.6 0,11.933333 L 3,26.533333 3,14.6 z m 3.2,0 20.333333,0 0,11.933333 -20.333333,0 z M 3,40.466667 C 3,6.1304918 3,33.066667 3,29.4 l 20.466667,0 0,12.066667 -19.466667,0 c -0.278,10e-4 -1,-0.621 -1,-1 z m 43,1 -19.333333,0 0,-12.066667 L 47,29.4 47,40.466667 c 0,0.379 -0.724,1 -1,1 z"/></svg>