<svg xmlns="http://www.w3.org/2000/svg" xmlns:svg="http://www.w3.org/2000/svg" id="Layer_1" width="50" height="50" x="0" y="0" enable-background="new 0 0 50 50" version="1.1" viewBox="0 0 50 50" xml:space="preserve"><metadata id="metadata3149"/><g id="g3139" transform="translate(-1.217,-0.268)"><path id="path3143" d="m 41.217,4.268 -30,0 c -2.773,0 -6,3.231 -6,6 l 0,30 c 0,2.769 3.227,6 6,6 l 30,0 c 2.775,0 6,-3.23 6,-6 l 0,-30 c 0,-2.768 -3.226,-6 -6,-6 z m -33,36 0,-30 c 0,-1 2,-3 3,-3 l 30,0 c 1,0 3,2 3,3 l 0,30 c 0,1 -2,3 -3,3 l -30,0 c -1,0 -3,-2 -3,-3 z"/></g></svg>