<svg xmlns="http://www.w3.org/2000/svg" xmlns:svg="http://www.w3.org/2000/svg" id="Layer_1" width="50" height="50" x="0" y="0" enable-background="new 0 0 50 50" version="1.1" viewBox="0 0 50 50" xml:space="preserve"><metadata id="metadata4808"/><g id="g4798" transform="translate(0.55862418,-0.525999)"><path id="path4800" d="m 40.685667,3.072 c 0.747,0 1.387,0.265 1.918,0.796 0.53,0.531 0.797,1.171 0.797,1.918 l 0,23.304999 c 0,5.153 -1.85,9.204 -5.547,12.154 -3.186,2.596 -6.848667,3.894 -11.253667,3.894 -4.484,0 -9.433333,-1.298 -12.579333,-3.894 -3.658,-2.95 -5.4860003,-7.001 -5.4860003,-12.154 l 0,-23.304999 c 0,-0.747 0.255,-1.387 0.767,-1.918 0.511,-0.531 1.1410003,-0.796 1.8880003,-0.796 0.747,0 1.387,0.265 1.918,0.796 0.531,0.531 0.796,1.171 0.796,1.918 l 0,23.479999 c 0,3.502 1.2,6.254 3.6,8.26 2.202,1.812 5.990333,2.715 9.098333,2.715 3.105,0 5.628667,-0.903 7.831667,-2.715 2.398,-2.006 3.6,-4.758 3.6,-8.26 l 0,-23.479999 c 0,-0.747 0.256,-1.387 0.768,-1.918 0.507,-0.531 1.138,-0.796 1.884,-0.796 z"/></g><path id="path4802" d="m 43.363692,48.433333 c 0,0.828 -0.599256,1.498214 -1.428254,1.5 L 11,50 c -0.827998,0.0018 -1.5696412,-0.63881 -1.5696412,-1.46681 l 0,-0.03319 C 9.4303588,47.672 10.172002,47.001781 11,47 l 31.000817,-0.06667 c 0.829998,-0.0018 1.362875,0.672 1.362875,1.5 z"/></svg>