<svg xmlns="http://www.w3.org/2000/svg" xmlns:xlink="http://www.w3.org/1999/xlink" id="Layer_1" width="50" height="50" x="0" y="0" enable-background="new 0 0 50 50" version="1.1" viewBox="0 0 50 50" xml:space="preserve"><path d="M27.124,25l8.096-8.095c0.544-0.544,0.544-1.427,0-1.972l-0.152-0.151c-0.544-0.544-1.427-0.544-1.972,0l-8.095,8.095	l-8.096-8.096c-0.545-0.544-1.428-0.544-1.973,0l-0.15,0.152c-0.545,0.544-0.545,1.427,0,1.972L22.878,25l-8.096,8.095	c-0.545,0.545-0.545,1.427,0,1.972l0.152,0.151c0.545,0.545,1.426,0.545,1.971,0l8.096-8.095l8.095,8.095	c0.545,0.545,1.427,0.545,1.972,0.001l0.151-0.152c0.545-0.545,0.545-1.427,0-1.972L27.124,25z"/></svg>